# xmcd
#
# Track frame offsets: 
#        150
#        23007
#        43646
#        66057
#        84896
#        124098
#        140558
#        170707
#        197378
#        234237
#
# Disc length: 3278 seconds
#
# Revision: 0
# Processed by: cddbd v1.5.2PL0 Copyright (c) Steve Scherf et al.
# Submitted via: ExactAudioCopy v0.95b4
#
DISCID=790ccc0a
DTITLE=NObudy - SMALL TALK big fry
DYEAR=2006
DGENRE=Rock
TTITLE0=Nothing's getting done
TTITLE1=Mind out
TTITLE2=I can see the sun in late december
TTITLE3=Close your eyes and see
TTITLE4=Sam, the One
TTITLE5=I'm a butterfly
TTITLE6=Better hide
TTITLE7=Blending calculator
TTITLE8=Heading for the goodtimes
TTITLE9=Bonus track
EXTD=
EXTT0=
EXTT1=
EXTT2=
EXTT3=
EXTT4=
EXTT5=
EXTT6=
EXTT7=
EXTT8=
EXTT9=
PLAYORDER=
